<svg xmlns="http://www.w3.org/2000/svg" xmlns:xlink="http://www.w3.org/1999/xlink" width="500" zoomAndPan="magnify" viewBox="0 0 375 374.999991" height="500" preserveAspectRatio="xMidYMid meet" version="1.0"><defs><g/></defs><g fill="#2190ff" fill-opacity="1"><g transform="translate(0.0000045, 253.603094)"><g><path d="M 43.609375 -24.078125 L 7.203125 -65.40625 L 43.609375 -106.9375 L 90.25 -106.9375 L 53.84375 -65.40625 L 90.25 -24.078125 Z M 43.609375 -24.078125 "/></g></g></g><g fill="#2190ff" fill-opacity="1"><g transform="translate(99.344262, 253.603094)"><g><path d="M 166.65625 -133.65625 L 166.65625 0 L 129.5 0 L 129.5 -73.75 L 104.28125 0 L 73.1875 0 L 47.78125 -74.328125 L 47.78125 0 L 10.625 0 L 10.625 -133.65625 L 55.546875 -133.65625 L 89.109375 -46.828125 L 121.90625 -133.65625 Z M 166.65625 -133.65625 "/></g></g></g><g fill="#2190ff" fill-opacity="1"><g transform="translate(276.609301, 253.603094)"><g><path d="M 7.96875 -106.9375 L 54.40625 -106.9375 L 90.8125 -65.40625 L 54.40625 -24.078125 L 7.96875 -24.078125 L 44.359375 -65.40625 Z M 7.96875 -106.9375 "/></g></g></g></svg>